HIERARCHY
ROOT Hips
{
  OFFSET 0 0 0
  CHANNELS 6 Xposition Yposition Zposition Zrotation Yrotation Xrotation
  JOINT LeftThigh
  {
    OFFSET 8.409438 0 -5.917753
    CHANNELS 3 Zrotation Yrotation Xrotation
    JOINT LeftLeg
    {
      OFFSET 0 0 -42.358652
      CHANNELS 3 Zrotation Yrotation Xrotation
      JOINT LeftFoot
      {
        OFFSET 0 0 -39.357303
        CHANNELS 3 Zrotation Yrotation Xrotation
      }
    }
  }
  JOINT RightThigh
  {
    OFFSET -8.409438 0 -5.917753
    CHANNELS 3 Zrotation Yrotation Xrotation
    JOINT RightLeg
    {
      OFFSET 0 0 -42.358652
      CHANNELS 3 Zrotation Yrotation Xrotation
      JOINT RightFoot
      {
        OFFSET 0 0 -39.357303
        CHANNELS 3 Zrotation Yrotation Xrotation
      }
    }
  }
  JOINT SpineLow
  {
    OFFSET 0 0 4.719101
    CHANNELS 3 Zrotation Yrotation Xrotation
    JOINT SpineMid
    {
      OFFSET 0 0 12.899191
      CHANNELS 3 Zrotation Yrotation Xrotation
      JOINT Chest
      {
        OFFSET 0 0 12.899191
        CHANNELS 3 Zrotation Yrotation Xrotation
        JOINT LeftShoulder
        {
          OFFSET 7.550562 1.41573 9.438202
          CHANNELS 3 Zrotation Yrotation Xrotation
          JOINT LeftArm
          {
            OFFSET 9.155056 0 4.247191
            CHANNELS 3 Zrotation Yrotation Xrotation
            JOINT LeftForearm
            {
              OFFSET 0 0 25.771955
              CHANNELS 3 Zrotation Yrotation Xrotation
              JOINT LeftHand
              {
                OFFSET 0 0 25.197169
                CHANNELS 3 Zrotation Yrotation Xrotation
              }
            }
          }
        }
        JOINT RightShoulder
        {
          OFFSET -7.550562 1.41573 9.438202
          CHANNELS 3 Zrotation Yrotation Xrotation
          JOINT RightArm
          {
            OFFSET -9.155056 0 4.247191
            CHANNELS 3 Zrotation Yrotation Xrotation
            JOINT RightForearm
            {
              OFFSET 0 0 -25.771955
              CHANNELS 3 Zrotation Yrotation Xrotation
              JOINT RightHand
              {
                OFFSET 0 0 -25.197169
                CHANNELS 3 Zrotation Yrotation Xrotation
              }
            }
          }
        }
        JOINT Neck
        {
          OFFSET 0 0 15.101124
          CHANNELS 3 Zrotation Yrotation Xrotation
          JOINT Head
          {
            OFFSET 0 0 11.325843
            CHANNELS 3 Zrotation Yrotation Xrotation
            End Site
            {
              OFFSET 0 0 14.157303
            }
          }
        }
      }
    }
  }
}
MOTION
Frames: 16
Frame Time: 0.0
0.0  93.25843  0.0  15.988509  -14.44177  -121.81271  40.757916  -14.243977  -88.850932  -2.673849  15.336463  48.215826  2.974861  -8.522189  2.589188  -10.107323  8.919065  3.619836  16.333624  9.213883  28.748162  12.492782  5.051805  3.282066  2.15045  0.938527  3.759734  6.009547  2.222207  10.354617  6.009547  2.222207  10.354617  -17.41263  29.048574  8.25356  -159.219538  64.021754  -110.080455  -29.698774  16.98325  88.504071  68.070378  -31.428506  -9.838641  0.484904  -11.013742  18.013926  109.642667  37.572857  44.681613  -7.175918  -19.284108  -120.462479  49.647419  5.173266  -7.300777  3.330181  3.493204  12.803459  2.424846  2.69115  9.580913  
0.0  93.25843  0.0  16.220988  -14.414891  -121.113206  39.510063  -13.459207  -86.65598  -4.25736  10.957034  37.346474  0.914794  -8.10138  2.608365  -8.522459  8.303556  3.281599  15.934144  9.230064  28.996644  12.231424  5.108709  3.289938  2.192221  0.982284  3.645238  6.12686  2.345556  10.047462  6.126861  2.345556  10.047462  -17.435317  28.99451  8.331736  -158.951851  63.896444  -109.868265  -29.66901  17.185058  88.396478  68.025055  -31.479326  -9.905846  0.519548  -11.029365  18.016369  109.059782  38.537819  44.735797  -6.145697  -19.774733  -120.899205  49.379212  5.176374  -7.464513  3.109901  3.570625  12.96305  2.257034  2.745466  9.70126  
0.0  93.25843  0.0  16.358594  -14.743462  -120.788342  39.342389  -15.297367  -84.67134  -3.332709  8.411239  28.384582  -0.654012  -8.039315  2.310082  -6.987577  7.552688  3.32442  15.671918  9.223607  29.169293  11.945625  5.229524  3.364324  2.301266  0.98472  3.592753  6.422963  2.340714  9.907776  6.422963  2.340714  9.907776  -17.57213  28.848331  8.336081  -158.943098  63.761941  -109.901011  -29.543849  17.105093  88.476324  67.997424  -31.445374  -9.993716  0.457177  -11.07193  17.976904  109.253103  38.939776  44.945449  -6.05188  -20.143516  -121.030398  49.344643  5.154825  -7.689181  2.855913  3.616878  13.059926  2.064941  2.775247  9.775032  
0.0  93.25843  0.0  16.51825  -15.089463  -120.625294  39.647787  -20.131478  -83.61227  -0.526146  7.725206  22.189948  -0.230392  -7.900101  1.905411  -6.268222  7.105562  3.29103  15.685379  9.2729  29.306347  11.825238  5.42492  3.438653  2.376538  0.983885  3.539447  6.626451  2.33252  9.764447  6.626451  2.33252  9.764446  -18.020173  28.412128  8.21379  -159.164947  63.575131  -110.200623  -29.866176  16.617439  88.318356  67.963506  -31.373152  -10.019127  0.587551  -11.102787  18.050531  109.725515  39.192272  45.28686  -6.481073  -20.34147  -120.962859  49.346059  5.077238  -8.088063  2.791972  3.664237  13.233442  2.014927  2.81025  9.905193  
0.0  93.25843  0.0  16.61521  -15.286057  -120.433365  40.62942  -26.559184  -84.190737  4.339125  8.57266  18.952179  1.014402  -7.835188  2.415503  -6.872958  7.18098  2.886404  16.108364  9.366815  29.488686  12.089323  5.569659  3.477723  2.417165  0.966839  3.477857  6.732783  2.286425  9.595656  6.732783  2.286425  9.595657  -17.878859  28.318093  8.304606  -159.572772  63.392689  -110.652678  -29.701813  16.353769  88.673841  67.960229  -31.288684  -10.008003  0.638651  -11.091011  18.078006  110.145435  39.461874  45.677846  -6.870985  -20.401581  -120.946429  49.365666  4.977777  -8.486495  2.75472  3.804634  13.440711  1.982613  2.915784  10.059909  
0.0  93.25843  0.0  16.646144  -15.233128  -120.366977  40.253912  -30.285454  -84.300417  8.05749  8.181932  18.365769  1.676261  -7.731245  2.884034  -8.669306  7.856384  2.104359  17.032751  9.331858  29.884346  12.634538  5.582425  3.383115  2.34458  0.961925  3.394704  6.531502  2.291944  9.36581  6.531502  2.291944  9.365809  -17.259589  28.204261  8.58972  -160.135508  63.19226  -111.305418  -29.474207  16.472376  89.284263  68.300748  -31.119946  -10.175208  1.020072  -11.17214  18.256598  110.584746  39.552866  46.033753  -7.219374  -20.364808  -120.876119  49.482003  4.911101  -8.774331  3.043766  3.957097  13.818965  2.193621  3.038556  10.340683  
0.0  93.25843  0.0  16.556778  -14.987637  -120.451206  39.212423  -31.475471  -85.147578  11.085318  7.669537  21.50404  1.517649  -7.935504  3.139738  -10.425064  8.547731  1.560121  17.866654  9.232657  30.318287  13.341174  5.519604  3.329118  2.287636  0.928986  3.357975  6.370261  2.213907  9.260345  6.370261  2.213907  9.260346  -17.115517  28.09955  8.699524  -160.729122  63.013655  -112.011795  -29.358564  16.539357  89.667205  68.280876  -31.17329  -10.093994  0.972262  -11.223253  18.252246  110.563837  39.82299  46.264692  -7.073399  -20.304437  -121.036399  49.4603  4.806189  -9.021935  3.087774  4.064234  14.150245  2.222004  3.121723  10.588001  
0.0  93.25843  0.0  16.317657  -14.683519  -120.788426  40.678733  -28.371437  -87.183098  9.591802  9.47286  27.567713  1.757131  -8.053349  2.911991  -11.319163  8.796936  1.641528  18.337188  9.125484  30.779918  13.675497  5.410573  3.331745  2.192315  0.868493  3.368322  6.101802  2.061544  9.279807  6.101803  2.061544  9.279807  -16.990832  28.152847  8.752253  -161.028538  62.977123  -112.443885  -29.24713  16.713752  90.00409  68.338004  -31.256118  -9.977544  1.070832  -11.250787  18.177966  110.335308  40.027723  46.308322  -6.691014  -20.324976  -121.239218  49.440118  4.75358  -9.108451  3.170308  4.154684  14.418355  2.279995  3.19299  10.787799  
0.0  93.25843  0.0  16.03421  -14.308235  -121.269365  41.788508  -23.701353  -87.565177  6.465053  11.404586  33.585663  1.536778  -8.352226  2.815793  -11.085964  8.601781  2.335606  18.311585  8.975731  31.16558  13.526481  5.453652  3.445186  2.083723  0.816568  3.404758  5.799054  1.93213  9.371468  5.799054  1.93213  9.371468  -16.913727  28.321328  8.850164  -161.016901  63.21645  -112.556362  -29.202665  16.647535  90.258117  68.362548  -31.271408  -9.845194  1.267342  -11.292863  18.216036  109.825274  40.428524  46.263811  -6.027919  -20.52325  -121.554646  49.343199  4.737349  -9.101893  3.24007  4.147846  14.607335  2.331247  3.190567  10.92907  
0.0  93.25843  0.0  15.951602  -14.083688  -121.82286  42.012284  -18.668369  -86.571997  2.331234  12.621984  39.335127  1.433267  -8.636983  2.779642  -9.970813  8.257366  3.278932  17.923125  8.884113  31.460907  13.305401  5.533621  3.5775  2.033156  0.785761  3.451401  5.657815  1.851344  9.494771  5.657815  1.851344  9.494771  -16.927644  28.560133  9.000891  -161.01231  63.681604  -112.529608  -29.132934  16.408989  90.52459  68.593195  -31.12336  -9.984949  1.385416  -11.292857  18.350998  109.297421  40.778318  46.089534  -5.247543  -20.895166  -122.140223  49.314909  4.641155  -8.665297  3.206136  4.087886  14.733869  2.30644  3.145455  11.02461  
0.0  93.25843  0.0  15.902831  -13.866162  -121.909203  42.393723  -13.698342  -86.013688  -2.069195  14.06059  45.438993  1.903454  -8.756111  2.79507  -8.771669  7.79549  3.818406  17.407588  8.947174  31.643623  12.99627  5.575846  3.602996  1.993006  0.769886  3.444276  5.545806  1.814479  9.472901  5.545806  1.814479  9.472901  -17.037297  28.731391  9.007697  -161.204503  64.205513  -112.658422  -29.264859  15.996738  90.468791  68.631328  -31.029789  -10.054594  1.465726  -11.18912  18.473011  108.813029  41.050902  45.777947  -4.894988  -21.322935  -122.214859  48.994982  4.686419  -8.543332  3.130812  4.043469  14.785482  2.250699  3.110578  11.064122  
0.0  93.25843  0.0  15.660339  -13.468383  -121.503039  42.373679  -10.381069  -86.074311  -5.437119  14.648306  52.719128  2.683376  -7.524038  1.991517  -8.035608  7.240324  3.970541  16.972625  9.118743  31.680168  12.942911  5.58569  3.657657  1.929539  0.74966  3.395002  5.368579  1.772535  9.335006  5.368579  1.772535  9.335006  -17.234165  28.764165  8.704006  -161.920048  64.708837  -113.289675  -29.398162  15.753585  90.278505  68.708198  -30.998131  -10.134408  1.441722  -11.054069  18.42834  108.398242  41.155739  45.335443  -4.652268  -21.866877  -122.23391  48.667264  4.710563  -8.454937  3.003838  4.030308  14.764628  2.155901  3.097511  11.049395  
0.0  93.25843  0.0  15.247004  -12.879473  -120.910901  41.728514  -9.968638  -86.338336  -5.165163  16.196869  59.483979  3.885121  -7.206773  2.058586  -7.729456  6.666372  3.959048  16.615887  9.309077  31.590336  12.768973  5.604415  3.679522  1.840909  0.724149  3.326254  5.121572  1.720952  9.142977  5.121572  1.720952  9.142977  -17.427547  28.709206  8.323149  -162.873868  65.124437  -114.204889  -29.53058  15.617673  90.030061  68.663721  -30.974242  -10.165328  1.36307  -10.954279  18.332125  107.973304  41.149968  44.783916  -4.412681  -22.498916  -122.153066  48.348021  4.76548  -8.469976  2.887904  4.059625  14.775732  2.068129  3.11676  11.058255  
0.0  93.25843  0.0  14.674016  -12.085679  -120.217961  40.970661  -11.447005  -86.614085  -2.731489  17.950169  66.187486  4.940582  -6.764865  2.140164  -7.796277  6.089062  3.878821  16.545049  9.396254  31.497601  12.708022  5.643269  3.724919  1.729397  0.693781  3.241529  4.811212  1.659876  8.906547  4.811212  1.659876  8.906547  -17.616066  28.602178  8.108891  -163.430039  65.339206  -114.88405  -29.656946  15.531777  89.606256  68.407412  -30.90304  -9.77994  1.224506  -10.903772  18.262804  107.47065  41.10034  44.146133  -4.102022  -23.154741  -122.092572  48.064114  4.778365  -8.533566  2.753396  4.085191  14.832709  1.966216  3.132961  11.101663  
0.0  93.25843  0.0  13.976592  -11.0886  -119.457416  40.267383  -13.808399  -87.007695  0.961654  19.85224  73.006369  5.76611  -6.230652  2.17552  -8.304958  5.601134  3.638689  16.563514  9.37914  31.327397  12.546059  5.614534  3.738873  1.59299  0.65617  3.145652  4.431865  1.582261  8.638798  4.431866  1.582261  8.638798  -17.821563  28.528657  8.071586  -163.638914  65.476978  -115.139606  -29.598592  15.736791  89.337353  68.334162  -30.931484  -9.821625  1.05773  -10.855783  18.250898  106.876404  41.045728  43.450805  -3.693051  -23.776789  -122.101151  47.787795  4.762332  -8.614716  2.628268  4.118385  14.939373  1.870818  3.15532  11.182222  
0.0  93.25843  0.0  13.167922  -9.902807  -118.546804  39.73981  -16.468039  -87.430585  5.308765  21.739686  79.85741  6.275252  -5.565914  2.156103  -8.914407  5.105807  3.324079  16.760093  9.211086  31.18282  12.27992  5.594145  3.71225  1.43738  0.606694  3.035568  3.998518  1.474459  8.331399  3.998518  1.474459  8.331399  -18.094596  28.492583  8.08914  -163.690986  65.527882  -115.25376  -29.626001  15.799198  88.899207  67.906308  -31.116822  -9.595218  0.853815  -10.743266  18.220093  106.13198  41.044971  42.703703  -3.103796  -24.34018  -122.272316  47.528813  4.791092  -8.66831  2.446411  4.146878  15.014046  1.733179  3.17257  11.239213  
